# xmcd CD database file
#
# Track frame offsets:
#	187
#	23875
#	51065
#	72662
#	93540
#	115230
#	140192
#	157325
#	178490
#	200707
#	225647
#
# Disc length: 3348 seconds
#
# Revision: 2
# Processed by: cddbd v1.5.1PL0 Copyright (c) Steve Scherf et al.
# Submitted via: CDex 1.51
#
DISCID=af0d120b
DTITLE=Spirit Traveler - Playing The Hits From The Motor City
DYEAR=1993
DGENRE=Jazz
TTITLE0=Signed, Sealed, Delivered I'm Yours
TTITLE1=Since I Lost My Baby
TTITLE2=Ain't That Peculiar
TTITLE3=Ain't Nothing Like The Real Thing
TTITLE4=You Keep Me Hangin' On
TTITLE5=Ooo Baby Baby
TTITLE6=Tracks Of My Tears
TTITLE7=Ain't No Mountain High Enough
TTITLE8=I Love You
TTITLE9=It's Growing
TTITLE10=You've Really Got A Hold On Me
EXTD=YEAR: 1993
EXTT0=
EXTT1=
EXTT2=
EXTT3=
EXTT4=
EXTT5=
EXTT6=
EXTT7=
EXTT8=
EXTT9=
EXTT10=
PLAYORDER=
